{"title":"At Middleton 2013 HDRip XviD titler","uid":9563441,"size":856435130,"categoryP":"video","categoryS":"movies","magnet":"?xt=urn:btih:6227d2a7426b617f6d6cace53808ce37848d2535&amp;dn=At+Middleton+2013+HDRip+XviD+titler&amp;tr=udp%3A%2F%2Ftracker.openbittorrent.com%3A80&amp;tr=udp%3A%2F%2Fopen.demonii.com%3A1337&amp;tr=udp%3A%2F%2Ftracker.coppersurfer.tk%3A6969&amp;tr=udp%3A%2F%2Fexodus.desync.com%3A6969","seeders":1,"leechers":0,"uploader":"movieZ.freak","files":4,"time":1391471859,"description":"SOURCE: At Middleton 2013 720p WEB-DL H264 - PHD\n\n\n &lt;a href=&quot;\nhttp://www.imdb.com/title/tt1483324/&quot; rel=&quot;nofollow&quot; target=&quot;_NEW&quot;&gt;\nhttp://www.imdb.com/title/tt1483324/&lt;/a&gt;\n\n\n &lt;a href=&quot;\nhttp://www.rottentomatoes.com/m/at_middleton/&quot; rel=&quot;nofollow&quot; target=&quot;_NEW&quot;&gt;\nhttp://www.rottentomatoes.com/m/at_middleton/&lt;/a&gt;\n\n\n &lt;a href=&quot;\nhttp://en.wikipedia.org/wiki/At_Middleton&quot; rel=&quot;nofollow&quot; target=&quot;_NEW&quot;&gt;\nhttp://en.wikipedia.org/wiki/At_Middleton&lt;/a&gt;\n\n\n\n- SAMPLE: Yes\n\n\n- SUBTITLE: English\n\n\n- LANGUAGE / AUDIO: English\n\n\n\n\nSCREENSHOTS:\n-------------------    &lt;a href=&quot;\nhttp://someimage.com/CD4E&quot; rel=&quot;nofollow&quot; target=&quot;_NEW&quot;&gt;\nhttp://someimage.com/CD4E&lt;/a&gt;\n\n\n\n\nDIRECTOR: Adam Rodgers\n\n\n\nCAST: Andy Garcia, Vera Farmiga, Taissa Farmiga, Mirjana Jokovic, Tom Skerritt, Peter Riegert, Spencer Lofranco, Nicholas Braun ...\n\n\n\nPLOT:\n-----------\nAdam Rodgers' romantic comedy At Middleton tells the story of George (Andy Garcia) and Edith (Vera Farmiga), two people who seem to have nothing in common aside from the fact that each has a university-bound child. However, when they meet during a group campus tour, the two strangers escape from the pack and quickly form a special bond as they reminisce about their own college days, and open up about their lives.\n\n\n************************************\n\n- Duration: 1h 40mn\n\n- Bit rate: 979 Kbps\n\n- Res: 720 x 402\n\n- AR: 16:9\n\n- FPS: 23.976 fps\n\n- Audio: AC3, 2 channels, 128Kbps\n\n************************************\n\n\nGeneral\n-----------\nFormat : AVI\nFormat/Info : Audio Video Interleave\nFile size : 801 MiB\nDuration : 1h 40mn\nOverall bit rate : 1116 Kbps\nWriting library : VirtualDub build 35491\n\n\nVideo\n-----------\nFormat : MPEG-4 Visual\nFormat profile : Advanced Simple@L5\nFormat settings, BVOP : 2\nFormat settings, QPel : No\nFormat settings, GMC : No warppoints\nFormat settings, Matrix : Default (H.263)\nCodec ID : XVID\nCodec ID/Hint : XviD\nDuration : 1h 40mn\nBit rate : 979 Kbps\nWidth : 720 pixels\nHeight : 402 pixels\nDisplay aspect ratio : 16:9\nFrame rate : 23.976 fps\nColor space : YUV\nChroma subsampling : 4:2:0\nBit depth : 8 bits\nScan type : Progressive\nCompression mode : Lossy\nBits/(Pixel*Frame) : 0.141\nStream size : 702 MiB (88%)\nWriting library : XviD 65\n\n\nAudio\n------------\nFormat : AC-3\nFormat/Info : Audio Coding 3\nMode extension : CM (complete main)\nFormat settings, Endianness : Big\nCodec ID : 2000\nDuration : 1h 40mn\nBit rate mode : Constant\nBit rate : 128 Kbps\nChannel(s) : 2 channels\nChannel positions : Front: L R\nSampling rate : 48.0 KHz\nBit depth : 16 bits\nCompression mode : Lossy\nStream size : 91.9 MiB (11%)\nAlignment : Aligned on interleaves\nInterleave, duration : 42 ms (1.00 video frame)\nInterleave, preload duration : 512 ms","torrent":{"xt":"urn:btih:6227d2a7426b617f6d6cace53808ce37848d2535","amp;dn":"At+Middleton+2013+HDRip+XviD+titler","amp;tr":["udp%3A%2F%2Ftracker.openbittorrent.com%3A80","udp%3A%2F%2Fopen.demonii.com%3A1337","udp%3A%2F%2Ftracker.coppersurfer.tk%3A6969","udp%3A%2F%2Fexodus.desync.com%3A6969"],"infoHash":"6227d2a7426b617f6d6cace53808ce37848d2535","infoHashBuffer":{"type":"Buffer","data":[98,39,210,167,66,107,97,127,109,108,172,229,56,8,206,55,132,141,37,53]},"announce":[],"urlList":[]}}